<svg xmlns="http://www.w3.org/2000/svg" width="700" height="540" version="1.0">
  <path fill="#0f0" d="
M491, 44
L455, 120
L404, 166
L441, 177

L387, 232
L423, 232

L329, 321
L370, 337

L289, 405

L324, 461
L450, 525
L505, 532
L575, 525
L657, 461

L692, 384
L645, 349

L666, 337
L665, 321

L592, 244
L620, 232

L556, 177
L596, 166
L542, 120
L506, 44
z"/>

<path stroke="#f00" d="
M455, 120 h87
M404, 166 h192
M441, 177 h115
M387, 232 h233
M592, 244 h-182
M329, 321 h336
M370, 337 h296
M645, 349 h-290
M692, 384 h-379
M289, 405 h393
M324, 461 h333
M450, 525 h125
M505, 532 h0

"/>
</svg>
